<?xml version="1.0" encoding="UTF-8" standalone="no"?><!DOCTYPE svg PUBLIC "-//W3C//DTD SVG 1.1//EN" "http://www.w3.org/Graphics/SVG/1.1/DTD/svg11.dtd"><svg width="100%" height="100%" viewBox="0 0 583 158" version="1.1" xmlns="http://www.w3.org/2000/svg" xmlns:xlink="http://www.w3.org/1999/xlink" xml:space="preserve" xmlns:serif="http://www.serif.com/" style="fill-rule:evenodd;clip-rule:evenodd;stroke-linejoin:round;stroke-miterlimit:2;"><rect x="0" y="86.359" width="81.583" height="20.387" style="fill:#c2151b;"/><rect x="0" y="121.592" width="81.583" height="20.387" style="fill:#c2151b;"/><rect x="48.217" y="73.38" width="20.388" height="81.583" style="fill:#c2151b;"/><rect x="12.979" y="73.38" width="20.387" height="81.583" style="fill:#c2151b;"/><path d="M173.404,1.1l31.696,0l0,33.675l-31.696,0l0,-33.675Zm0,154.296l0,-81.879l-44.021,0l0,81.879l-31.695,0l0,-81.879l-16.288,0l0,-25.312l16.288,0l0,-13.867c0,-22.013 10.345,-34.338 36.32,-34.338c9.021,0 15.846,1.1 22.009,2.863l-3.963,24.871c-4.4,-0.884 -8.141,-1.321 -11.883,-1.321c-10.125,0 -10.788,4.404 -10.788,11.446l0,10.346l75.717,0l0,107.191l-31.696,0Z" style="fill:#f7931d;fill-rule:nonzero;"/><path d="M285.887,48.204l33.896,0l-28.171,53.267l29.491,53.925l-33.895,0l-28.613,-53.925l27.292,-53.267Zm-63.171,107.192l0,-150.996l31.696,-4.4l0,155.396l-31.696,0Z" style="fill:#f7931d;fill-rule:nonzero;"/><path d="M385.6,76.156c-5.5,-1.321 -13.646,-2.641 -20.25,-2.641c-8.362,0 -11.442,5.066 -11.442,12.108l0,32.354c0,7.483 3.08,12.104 11.442,12.104c7.263,0 15.629,-4.4 20.25,-8.362l0,-45.563Zm-63.392,9.467c0,-25.313 11.009,-39.621 36.1,-39.621c8.805,0 20.03,1.321 27.292,3.079l0,-44.679l31.696,-4.4l0,155.396l-24.871,0l-3.3,-8.583c-7.487,4.841 -21.354,10.783 -33.021,10.783c-21.787,0 -33.896,-13.429 -33.896,-39.621l0,-32.354Z" style="fill:#f7931d;fill-rule:nonzero;"/><path d="M434.908,48.205l31.696,0l0,107.191l-31.696,0l0,-107.191Zm0,-47.105l31.696,0l0,33.675l-31.696,0l0,-33.675Z" style="fill:#f7931d;fill-rule:nonzero;"/><path d="M547.384,48.204l33.9,0l-28.175,53.267l29.491,53.925l-33.895,0l-28.613,-53.925l27.292,-53.267Zm-63.171,107.192l0,-150.996l31.696,-4.4l0,155.396l-31.696,0Z" style="fill:#f7931d;fill-rule:nonzero;"/></svg>