<?xml version="1.0" encoding="UTF-8"?>
<svg version="1.1" xmlns="http://www.w3.org/2000/svg" viewBox="0 0 28 32">
<title>align-justify</title>
<path d="M0 5.25v-2.5q0-0.438 0.281-0.719t0.719-0.281h26q0.438 0 0.719 0.281t0.281 0.719v2.5q0 0.438-0.281 0.719t-0.719 0.281h-26q-0.438 0-0.719-0.281t-0.281-0.719zM1 14.25h26q0.438 0 0.719-0.281t0.281-0.719v-2.5q0-0.438-0.281-0.719t-0.719-0.281h-26q-0.438 0-0.719 0.281t-0.281 0.719v2.5q0 0.438 0.281 0.719t0.719 0.281zM1 30.25h26q0.438 0 0.719-0.281t0.281-0.719v-2.5q0-0.438-0.281-0.719t-0.719-0.281h-26q-0.438 0-0.719 0.281t-0.281 0.719v2.5q0 0.438 0.281 0.719t0.719 0.281zM1 22.25h26q0.438 0 0.719-0.281t0.281-0.719v-2.5q0-0.438-0.281-0.719t-0.719-0.281h-26q-0.438 0-0.719 0.281t-0.281 0.719v2.5q0 0.438 0.281 0.719t0.719 0.281z"></path>
</svg>
