<?xml version="1.0" encoding="UTF-8"?>
<svg version="1.1" xmlns="http://www.w3.org/2000/svg" viewBox="0 0 24 32">
<title>calculator</title>
<path d="M21 0h-18q-1.25 0-2.125 0.875t-0.875 2.125v26q0 1.25 0.875 2.125t2.125 0.875h18q1.25 0 2.125-0.875t0.875-2.125v-26q0-1.25-0.875-2.125t-2.125-0.875zM3 2h18q0.438 0 0.719 0.281t0.281 0.719v5h-20v-5q0-0.438 0.281-0.719t0.719-0.281zM21 30h-18q-0.438 0-0.719-0.281t-0.281-0.719v-19h20v19q0 0.438-0.281 0.719t-0.719 0.281zM8 12.75v2.5q0 0.313-0.219 0.531t-0.531 0.219h-2.5q-0.313 0-0.531-0.219t-0.219-0.531v-2.5q0-0.313 0.219-0.531t0.531-0.219h2.5q0.313 0 0.531 0.219t0.219 0.531zM14 12.75v2.5q0 0.313-0.219 0.531t-0.531 0.219h-2.5q-0.313 0-0.531-0.219t-0.219-0.531v-2.5q0-0.313 0.219-0.531t0.531-0.219h2.5q0.313 0 0.531 0.219t0.219 0.531zM20 12.75v2.5q0 0.313-0.219 0.531t-0.531 0.219h-2.5q-0.313 0-0.531-0.219t-0.219-0.531v-2.5q0-0.313 0.219-0.531t0.531-0.219h2.5q0.313 0 0.531 0.219t0.219 0.531zM8 18.75v2.5q0 0.313-0.219 0.531t-0.531 0.219h-2.5q-0.313 0-0.531-0.219t-0.219-0.531v-2.5q0-0.313 0.219-0.531t0.531-0.219h2.5q0.313 0 0.531 0.219t0.219 0.531zM14 18.75v2.5q0 0.313-0.219 0.531t-0.531 0.219h-2.5q-0.313 0-0.531-0.219t-0.219-0.531v-2.5q0-0.313 0.219-0.531t0.531-0.219h2.5q0.313 0 0.531 0.219t0.219 0.531zM20 18.75v8.5q0 0.313-0.219 0.531t-0.531 0.219h-2.5q-0.313 0-0.531-0.219t-0.219-0.531v-8.5q0-0.313 0.219-0.531t0.531-0.219h2.5q0.313 0 0.531 0.219t0.219 0.531zM8 24.75v2.5q0 0.313-0.219 0.531t-0.531 0.219h-2.5q-0.313 0-0.531-0.219t-0.219-0.531v-2.5q0-0.313 0.219-0.531t0.531-0.219h2.5q0.313 0 0.531 0.219t0.219 0.531zM14 24.75v2.5q0 0.313-0.219 0.531t-0.531 0.219h-2.5q-0.313 0-0.531-0.219t-0.219-0.531v-2.5q0-0.313 0.219-0.531t0.531-0.219h2.5q0.313 0 0.531 0.219t0.219 0.531z"></path>
</svg>
