<?xml version="1.0" encoding="UTF-8"?>
<svg version="1.1" xmlns="http://www.w3.org/2000/svg" viewBox="0 0 32 32">
<title>envelope</title>
<path d="M29 4h-26q-1.25 0-2.125 0.875t-0.875 2.125v18q0 1.25 0.875 2.125t2.125 0.875h26q1.25 0 2.125-0.875t0.875-2.125v-18q0-1.25-0.875-2.125t-2.125-0.875zM3 6h26q0.438 0 0.719 0.281t0.281 0.719v2.563q-2.188 1.875-9.438 7.625l-0.625 0.5q-1.25 1.063-1.938 1.5-1.188 0.813-2 0.813t-2-0.813q-0.75-0.438-2-1.5l-0.563-0.5q-7.25-5.75-9.438-7.625v-2.563q0-0.438 0.281-0.719t0.719-0.281zM29 26h-26q-0.438 0-0.719-0.281t-0.281-0.719v-12.813q2.188 1.75 8.188 6.563l0.625 0.5q1.438 1.25 2.375 1.813 1.563 0.938 2.813 0.938t2.813-0.938q0.875-0.563 2.375-1.813l0.625-0.5q6-4.813 8.188-6.563v12.813q0 0.438-0.281 0.719t-0.719 0.281z"></path>
</svg>
