<?xml version="1.0" encoding="UTF-8"?>
<svg version="1.1" viewBox="0 0 32 32" xmlns="http://www.w3.org/2000/svg">
<title>hand-spock</title>
<path d="m27.688 5.5q0-1.25-0.781-2.25t-2.094-1.313q-1.5-0.375-2.844 0.406t-1.719 2.344l-1.625 8.313-1.938-10.063q-0.375-1.563-1.688-2.375t-2.875-0.438q-1.375 0.313-2.188 1.438t-0.688 2.563q-1.25-0.188-2.344 0.438t-1.594 1.75-0.25 2.375l2.188 9.563v0.813l-0.875-0.813q-1.188-1.063-2.75-1.031t-2.625 1.188-1 2.719 1.188 2.625l8.375 7.813q0.438 0.438 1 0.438h15.375q0.5 0 0.906-0.313t0.531-0.75l2.063-6.938q0.313-1 0.313-2v-2.375q0-0.438 0.063-0.938l2.063-8.625q0.313-1.25-0.219-2.406t-1.625-1.75-2.344-0.406zm2.25 4.125l-2.063 8.625q-0.125 0.688-0.125 1.375v2.375q0 0.75-0.25 1.438l-1.938 6.563h-14.813l-8.188-7.75q-0.563-0.5-0.563-1.219t0.5-1.281q0.5-0.5 1.219-0.531t1.281 0.469l3.438 3.25q0.188 0.188 0.5 0.063t0.313-0.438v-4.625l-2.25-9.688q-0.188-1.063 0.563-1.688t1.719-0.406 1.219 1.281l1.938 8.688q0.063 0.375 0.5 0.375h0.563q0.25 0 0.375-0.188t0.125-0.438l-2.75-11.688q-0.25-1.125 0.531-1.75t1.75-0.375 1.219 1.313l2.875 12.75q0.125 0.375 0.5 0.375h0.875q0.375 0 0.5-0.375l2.688-11q0.313-1.063 1.281-1.25t1.719 0.438 0.438 1.688l-2.438 9.875q-0.063 0.25 0.094 0.438t0.406 0.188h0.625q0.375 0 0.438-0.375l1.75-7.313q0.25-1.063 1.219-1.313t1.719 0.406 0.5 1.719z"/>
</svg>
