<?xml version="1.0" encoding="UTF-8"?>
<svg version="1.1" xmlns="http://www.w3.org/2000/svg" viewBox="0 0 32 32">
<title>life-ring</title>
<path d="M16 0.5q-4.188 0-7.75 2.094t-5.656 5.656-2.094 7.75 2.094 7.75 5.656 5.656 7.75 2.094 7.75-2.094 5.656-5.656 2.094-7.75-2.094-7.75-5.656-5.656-7.75-2.094zM26.563 7.563l-3.938 3.938q-0.875-1.25-2.125-2.125l3.938-3.938q1.188 0.938 2.125 2.125zM16 22q-2.5 0-4.25-1.75t-1.75-4.25 1.75-4.25 4.25-1.75 4.25 1.75 1.75 4.25-1.75 4.25-4.25 1.75zM22.75 4.313l-4.125 4.125q-2.625-0.875-5.25 0l-4.125-4.125q3.125-1.813 6.75-1.813t6.75 1.813zM7.563 5.438l3.938 3.938q-1.25 0.875-2.125 2.125l-3.938-3.938q0.938-1.188 2.125-2.125zM4.313 9.25l4.125 4.125q-0.875 2.625 0 5.25l-4.125 4.125q-1.813-3.125-1.813-6.75t1.813-6.75zM5.438 24.438l3.938-3.938q0.875 1.25 2.125 2.125l-3.938 3.938q-1.188-0.938-2.125-2.125zM9.25 27.688l4.125-4.125q2.625 0.875 5.25 0l4.125 4.125q-3.125 1.813-6.75 1.813t-6.75-1.813zM24.438 26.563l-3.938-3.938q1.25-0.875 2.125-2.125l3.938 3.938q-0.938 1.188-2.125 2.125zM27.688 22.75l-4.125-4.125q0.875-2.625 0-5.25l4.125-4.125q1.813 3.125 1.813 6.75t-1.813 6.75z"></path>
</svg>
