<?xml version="1.0" encoding="UTF-8"?>
<svg version="1.1" xmlns="http://www.w3.org/2000/svg" viewBox="0 0 32 32">
<title>rocket</title>
<path d="M31.375 1.188q-0.125-0.438-0.563-0.563-1.75-0.438-2.75-0.5-0.875-0.125-2.563-0.125-5.5 0-10.875 6h-7.938q-0.563 0-1.031 0.25t-0.719 0.75l-4.688 8q-0.563 1 0.031 2t1.719 1h5.188q-0.625 1.313-1.188 2.813-0.188 0.438 0.188 0.75l4.25 4.25q0.313 0.375 0.75 0.188 1.438-0.563 2.813-1.188v5.188q0 1.188 1 1.75t2 0l8-4.688q0.438-0.25 0.719-0.719t0.281-1.031v-7.938q6-5.375 6-10.875 0-1.688-0.125-2.563-0.063-1-0.5-2.75zM2 16l4.688-8h6.313q-2.688 3.5-4.875 8h-6.125zM16 30v-6.125q4.5-2.188 8-4.875v6.313zM11.25 23.813l-3.063-3.063q1.688-4.25 4.063-8.063 2.875-4.75 5.938-7.438 3.688-3.25 7.313-3.25 1.375 0 2 0.063 0.875 0.063 2.125 0.313 0.25 1.25 0.313 2.188 0.063 0.563 0.063 1.938 0 3.625-3.25 7.313-2.688 3.063-7.438 5.938-3.813 2.375-8.063 4.063zM23 5.5q-1.438 0-2.469 1.031t-1.031 2.469 1.031 2.469 2.469 1.031 2.469-1.031 1.031-2.469-1.031-2.469-2.469-1.031zM23 10.5q-0.625 0-1.063-0.438t-0.438-1.063 0.438-1.063 1.063-0.438 1.063 0.438 0.438 1.063-0.438 1.063-1.063 0.438z"></path>
</svg>
