<?xml version="1.0" encoding="UTF-8"?>
<svg version="1.1" xmlns="http://www.w3.org/2000/svg" viewBox="0 0 32 32">
<title>twitter</title>
<path d="M28.688 9.5q0.063 0.25 0.063 0.813 0 4.5-2.188 8.688-2.25 4.438-6.313 7.063-4.438 2.938-10.188 2.938-5.5 0-10.063-2.938 0.688 0.063 1.563 0.063 4.563 0 8.188-2.813-2.188 0-3.844-1.281t-2.281-3.219q0.625 0.063 1.188 0.063 0.875 0 1.75-0.188-2.25-0.5-3.75-2.313t-1.5-4.125v-0.125q1.375 0.813 2.938 0.875-1.313-0.938-2.125-2.375t-0.813-3.156 0.938-3.281q2.438 3.063 5.969 4.875t7.531 2q-0.125-0.75-0.125-1.5 0-1.75 0.875-3.281t2.375-2.406 3.25-0.875q1.438 0 2.656 0.563t2.156 1.5q2.25-0.438 4.188-1.563-0.75 2.313-2.875 3.625 1.875-0.25 3.75-1.063-1.375 2-3.313 3.438z"></path>
</svg>
