<?xml version="1.0" encoding="UTF-8"?>
<svg version="1.1" xmlns="http://www.w3.org/2000/svg" viewBox="0 0 32 32">
<title>window-close</title>
<path d="M29 2h-26q-1.25 0-2.125 0.875t-0.875 2.125v22q0 1.25 0.875 2.125t2.125 0.875h26q1.25 0 2.125-0.875t0.875-2.125v-22q0-1.25-0.875-2.125t-2.125-0.875zM23.75 20.125q0.25 0.25 0.25 0.563t-0.25 0.563l-2.5 2.5q-0.25 0.25-0.563 0.25t-0.5-0.25l-4.188-4.188-4.125 4.188q-0.25 0.25-0.563 0.25t-0.563-0.25l-2.5-2.5q-0.25-0.25-0.25-0.563t0.25-0.5l4.188-4.188-4.188-4.188q-0.25-0.188-0.25-0.5t0.25-0.563l2.5-2.5q0.25-0.25 0.563-0.25t0.5 0.25l4.188 4.188 4.188-4.188q0.188-0.25 0.5-0.25t0.563 0.25l2.5 2.5q0.25 0.25 0.25 0.563t-0.25 0.5l-4.188 4.188z"></path>
</svg>
