<?xml version="1.0" encoding="UTF-8"?>
<svg version="1.1" xmlns="http://www.w3.org/2000/svg" viewBox="0 0 40 32">
<title>coffee</title>
<path d="M12 24h12q2.5 0 4.25-1.75t1.75-4.25h2q2.188 0 4.031-1.063t2.906-2.906 1.063-4.031-1.063-4.031-2.906-2.906-4.031-1.063h-24.5q-0.625 0-1.063 0.438t-0.438 1.063v14.5q0 2.5 1.75 4.25t4.25 1.75zM32 6q1.625 0 2.813 1.188t1.188 2.813-1.188 2.813-2.813 1.188h-2v-8h2zM35 30h-32q-1 0-1.813-0.625-0.688-0.563-1-1.344t-0.156-1.406 0.719-0.625h36.5q0.563 0 0.719 0.625t-0.156 1.406-1 1.344q-0.813 0.625-1.813 0.625z"></path>
</svg>
