<?xml version="1.0" encoding="UTF-8"?>
<svg version="1.1" xmlns="http://www.w3.org/2000/svg" viewBox="0 0 32 32">
<title>cubes</title>
<path d="M24.25 13.688v-6.938q0-0.688-0.406-1.281t-1.031-0.844l-6-2.25q-0.813-0.313-1.625 0l-6 2.25q-0.625 0.25-1.031 0.844t-0.406 1.281v6.938l-6.313 2.375q-0.625 0.25-1.031 0.813t-0.406 1.25v6.375q0 0.625 0.344 1.156t0.906 0.844l6 3q1 0.5 2 0l6.75-3.375 6.75 3.375q1 0.5 2 0l6-3q0.563-0.313 0.906-0.844t0.344-1.156v-6.375q0-0.688-0.406-1.25t-1.031-0.813zM16.5 16.063v-6.125l6.688-2.938v6.688l-3.375 1.313zM8.813 5.875l7.188-2.688 7.25 2.688-7.25 3.125zM15.5 9.938v6.125l-3.313-1.063-3.375-1.313v-6.688zM7.75 28.563l-6.688-3.313v-6.813l6.688 2.938v7.188zM15.5 25.25l-6.75 3.313v-7.188l6.75-2.938v6.813zM15.5 17.313l-7.25 3.125-7.188-3.125 7.125-2.688zM23.25 28.563l-6.688-3.313v-6.813l6.688 2.938v7.188zM31 25.25l-6.75 3.313v-7.188l6.75-2.938v6.813zM31 17.313l-7.25 3.125-7.188-3.125 7.25-2.688z"></path>
</svg>
