<?xml version="1.0" encoding="UTF-8"?>
<svg version="1.1" xmlns="http://www.w3.org/2000/svg" viewBox="0 0 32 32">
<title>gift</title>
<path d="M30.5 11h-3.75q1.25-1.5 1.25-3.5 0-2.25-1.625-3.875t-3.875-1.625q-1.875 0-3.438 1.063-1.375 0.938-3.063 3.313-1.688-2.375-3.063-3.313-1.563-1.063-3.438-1.063-2.25 0-3.875 1.625t-1.625 3.875q0 2 1.25 3.5h-3.75q-0.625 0-1.063 0.438t-0.438 1.063v8q0 0.625 0.438 1.063t1.063 0.438h0.5v5q0 1.25 0.875 2.125t2.125 0.875h22q1.25 0 2.125-0.875t0.875-2.125v-5h0.5q0.625 0 1.063-0.438t0.438-1.063v-8q0-0.625-0.438-1.063t-1.063-0.438zM17.25 9.813q1.438-2.125 2.344-3.156t1.594-1.344q0.563-0.313 1.313-0.313 1.063 0 1.781 0.719t0.719 1.781-0.719 1.781-1.781 0.719h-5.375zM9.5 5q0.75 0 1.313 0.313 0.688 0.313 1.594 1.344t2.344 3.156l0.125 0.188h-5.375q-1.063 0-1.781-0.719t-0.719-1.781 0.719-1.781 1.781-0.719zM5 27v-5h8v-3h-10v-5h11.5v13h-9.5zM29 19h-10v3h8v5h-9.5v-13h11.5v5z"></path>
</svg>
