<?xml version="1.0" encoding="UTF-8"?>
<svg version="1.1" xmlns="http://www.w3.org/2000/svg" viewBox="0 0 32 32">
<title>linkedin</title>
<path d="M26 2h-24q-0.813 0-1.406 0.594t-0.594 1.406v24q0 0.813 0.594 1.406t1.406 0.594h24q0.813 0 1.406-0.594t0.594-1.406v-24q0-0.813-0.594-1.406t-1.406-0.594zM8.438 26h-4.125v-13.375h4.188v13.375h-0.063zM6.375 10.813q-1 0-1.688-0.719t-0.688-1.688 0.688-1.688 1.688-0.719 1.719 0.719 0.719 1.688-0.719 1.688-1.719 0.719zM24 26h-4.125v-6.5q0-1.625-0.313-2.375-0.438-1.188-1.875-1.188t-2.063 1.063q-0.438 0.813-0.438 2.375v6.625h-4.125v-13.375h4v1.813h0.063q0.438-0.875 1.375-1.438 1.125-0.688 2.563-0.688 2.875 0 4.063 1.813 0.875 1.438 0.875 4.563v7.313z"></path>
</svg>
