<?xml version="1.0" encoding="UTF-8"?>
<svg version="1.1" xmlns="http://www.w3.org/2000/svg" viewBox="0 0 24 32">
<title>map-marker-alt</title>
<path d="M12 0q-3.25 0-6 1.625t-4.375 4.375-1.625 6q0 1.813 0.438 3.25t1.688 3.688q0.875 1.438 3.625 5.813l3.688 5.813q0.563 0.938 1.563 1.281t2 0 1.563-1.281l3.688-5.813q2.75-4.375 3.625-5.875 1.25-2.188 1.688-3.625t0.438-3.25q0-3.25-1.625-6t-4.375-4.375-6-1.625zM12 29q-1.563-2.5-3.938-6.188-2.5-4-3.25-5.313-1.125-1.875-1.469-2.969t-0.344-2.531q0-2.438 1.219-4.5t3.281-3.281 4.5-1.219 4.5 1.219 3.281 3.281 1.219 4.5q0 1.438-0.344 2.5t-1.406 2.938q-0.813 1.313-3.313 5.313zM7 12q0-2.063 1.469-3.531t3.531-1.469 3.531 1.469 1.469 3.531-1.469 3.531-3.531 1.469-3.531-1.469-1.469-3.531z"></path>
</svg>
