<?xml version="1.0" encoding="UTF-8"?>
<svg version="1.1" xmlns="http://www.w3.org/2000/svg" viewBox="0 0 20 32">
<title>mobile-alt</title>
<path d="M17 0h-14q-1.25 0-2.125 0.875t-0.875 2.125v26q0 1.25 0.875 2.125t2.125 0.875h14q1.25 0 2.125-0.875t0.875-2.125v-26q0-1.25-0.875-2.125t-2.125-0.875zM10 30q-0.813 0-1.406-0.594t-0.594-1.406 0.594-1.406 1.406-0.594 1.406 0.594 0.594 1.406-0.594 1.406-1.406 0.594zM17 23.25q0 0.313-0.219 0.531t-0.531 0.219h-12.5q-0.313 0-0.531-0.219t-0.219-0.531v-19.5q0-0.313 0.219-0.531t0.531-0.219h12.5q0.313 0 0.531 0.219t0.219 0.531v19.5z"></path>
</svg>
