<?xml version="1.0" encoding="UTF-8"?>
<svg version="1.1" xmlns="http://www.w3.org/2000/svg" viewBox="0 0 32 32">
<title>phone</title>
<path d="M30.5 1.5l-6.313-1.438q-0.688-0.188-1.313 0.156t-0.938 0.969l-2.875 6.75q-0.25 0.625-0.094 1.25t0.656 1.063l3.375 2.75q-1.625 3.25-4.188 5.813t-5.813 4.188l-2.75-3.375q-0.438-0.5-1.063-0.656t-1.25 0.094l-6.75 2.875q-0.625 0.313-0.969 0.938t-0.156 1.313l1.438 6.313q0.188 0.625 0.719 1.063t1.219 0.438q7.75 0 14.375-3.875 6.5-3.813 10.25-10.25 3.938-6.688 3.938-14.5 0-0.625-0.438-1.156t-1.063-0.719zM3.438 30l-1.438-6.25 6.75-2.875 3.688 4.563q4.875-2.25 7.813-5.188t5.188-7.813l-4.563-3.688 2.875-6.75 6.25 1.438q0 7.188-3.625 13.375-3.563 6.063-9.563 9.563-6.188 3.625-13.375 3.625z"></path>
</svg>
