<?xml version="1.0" encoding="UTF-8"?>
<svg version="1.1" xmlns="http://www.w3.org/2000/svg" viewBox="0 0 32 32">
<title>smile</title>
<path d="M31.5 16q0 4.188-2.094 7.75t-5.656 5.656-7.75 2.094-7.75-2.094-5.656-5.656-2.094-7.75 2.094-7.75 5.656-5.656 7.75-2.094 7.75 2.094 5.656 5.656 2.094 7.75zM23.813 20.688q0.375-0.5 0.094-0.969t-0.844-0.531-0.875 0.438q-1.688 2.563-3.938 3.438t-4.5 0-3.938-3.438q-0.313-0.5-0.875-0.438t-0.844 0.531 0.094 0.969q2 3.125 4.906 4.25t5.813 0 4.906-4.25zM6.75 12q0 1.75 1.25 3t3 1.25 3-1.25 1.25-3-1.25-3-3-1.25-3 1.25-1.25 3zM16.813 12q-0.063 1.75 1.188 3t3 1.25 3-1.25 1.25-3-1.25-3-3-1.25-3 1.25-1.188 3zM21 9q-0.75 0-1.438 0.375v0q0.563 0 0.906 0.344t0.344 0.875-0.344 0.875-0.875 0.344-0.875-0.344-0.344-0.906v0q-0.375 0.688-0.375 1.438 0 1.25 0.875 2.125t2.125 0.875 2.125-0.875 0.875-2.125-0.875-2.125-2.125-0.875zM11 9q-0.75 0-1.438 0.375v0q0.563 0 0.906 0.344t0.344 0.875-0.344 0.875-0.875 0.344-0.875-0.344-0.344-0.906v0q-0.375 0.688-0.375 1.438 0 1.25 0.875 2.125t2.125 0.875 2.125-0.875 0.875-2.125-0.875-2.125-2.125-0.875z"></path>
</svg>
