<?xml version="1.0" encoding="UTF-8"?>
<svg version="1.1" xmlns="http://www.w3.org/2000/svg" viewBox="0 0 40 32">
<title>users</title>
<path d="M35.813 15.563q1.188-1.563 1.188-3.563 0-2.5-1.75-4.25t-4.219-1.75-4.281 1.75q-0.438-0.75-1.063-1.438-1.188-1.125-2.625-1.719t-3.063-0.594-3.063 0.594-2.625 1.719q-0.625 0.688-1.063 1.438-1.813-1.75-4.281-1.75t-4.219 1.75-1.75 4.25q0 2 1.188 3.563-1.813 0.313-3 1.688t-1.188 3.25v2.75q0 1.125 0.813 1.938t1.938 0.813h7.375q0.25 0.875 0.969 1.438t1.656 0.563h14.5q0.938 0 1.656-0.563t0.969-1.438h7.375q1.125 0 1.938-0.813t0.813-1.938v-2.75q0-1.875-1.188-3.25t-3-1.688zM31 8q1.688 0 2.844 1.156t1.156 2.844-1.156 2.844-2.844 1.156q-1 0-1.875-0.469t-1.438-1.281q0.313-1.125 0.313-2.25t-0.313-2.25q0.563-0.813 1.438-1.281t1.875-0.469zM20 6q2.5 0 4.25 1.75t1.75 4.25-1.75 4.25-4.25 1.75-4.25-1.75-1.75-4.25 1.75-4.25 4.25-1.75zM9 8q1 0 1.875 0.469t1.438 1.281q-0.313 1.125-0.313 2.25t0.313 2.25q-0.563 0.813-1.438 1.281t-1.875 0.469q-1.688 0-2.844-1.156t-1.156-2.844 1.156-2.844 2.844-1.156zM10 22v2h-7.25q-0.313 0-0.531-0.219t-0.219-0.531v-2.75q0-1.25 0.875-2.125t2.125-0.875h1.625q1.125 0.5 2.375 0.5t2.375-0.5h1.438q-1.25 0.625-2.031 1.844t-0.781 2.656zM28 25.25q0 0.313-0.219 0.531t-0.531 0.219h-14.5q-0.313 0-0.531-0.219t-0.219-0.531v-3.25q0-1.25 0.875-2.125t2.125-0.875h1.125q1.75 1 3.844 1t3.906-1h1.125q1.25 0 2.125 0.875t0.875 2.125v3.25zM38 23.25q0 0.313-0.219 0.531t-0.531 0.219h-7.25v-2q0-1.438-0.781-2.656t-2.031-1.844h1.438q1.125 0.5 2.375 0.5t2.375-0.5h1.625q1.25 0 2.125 0.875t0.875 2.125v2.75z"></path>
</svg>
