<?xml version="1.0" encoding="UTF-8"?>
<svg version="1.1" xmlns="http://www.w3.org/2000/svg" viewBox="0 0 32 32">
<title>whatsapp</title>
<path d="M23.813 6.063q-2-1.938-4.531-3t-5.281-1.063q-3.75 0-6.938 1.875t-5.063 5.063-1.875 6.938 1.875 6.938l-2 7.188 7.375-1.938q3.063 1.688 6.625 1.688v0q3.75 0 6.969-1.875t5.125-5.063 1.906-6.938q0-2.75-1.094-5.281t-3.094-4.531zM14 27.438q-3.188 0-5.875-1.625l-0.438-0.25-4.375 1.125 1.188-4.25-0.25-0.438q-1.813-2.813-1.813-6.125 0-3.125 1.563-5.781t4.219-4.219 5.781-1.563q2.313 0 4.406 0.875t3.75 2.531 2.594 3.781 0.938 4.375q0 3.125-1.594 5.781t-4.281 4.219-5.813 1.563zM20.313 18.75q-1.875-0.938-2.375-1.125-0.25-0.063-0.438-0.063t-0.313 0.25q-0.313 0.438-1.125 1.375-0.25 0.313-0.75 0.063-1.75-0.875-2.625-1.563-1.188-0.938-2.063-2.563-0.188-0.188-0.125-0.344t0.313-0.406q0.5-0.5 0.813-1.125 0.125-0.25-0.063-0.625l-1.063-2.563q-0.125-0.375-0.281-0.469t-0.406-0.094h-0.75q-0.5 0-0.938 0.438l-0.063 0.063q-1.125 1.188-1.125 2.813t1.375 3.563l0.125 0.125q2.625 3.75 5.813 5.125 1.563 0.688 2.5 0.875 0.813 0.125 1.688 0 0.563-0.063 1.344-0.594t1-1.063 0.25-1.031-0.031-0.625-0.5-0.313z"></path>
</svg>
