<?xml version="1.0" encoding="UTF-8"?>
<svg version="1.1" xmlns="http://www.w3.org/2000/svg" viewBox="0 0 36 32">
<title>youtube</title>
<path d="M34.375 7.75q-0.313-1.125-1.125-1.938t-1.938-1.125q-1.625-0.438-7.625-0.625l-5.688-0.063-5.688 0.063q-6 0.188-7.625 0.625-1.125 0.313-1.938 1.125t-1.125 1.938q-0.438 1.688-0.625 5.125-0.063 1.75-0.063 3.125l0.063 3.125q0.188 3.5 0.625 5.188 0.313 1.063 1.125 1.875t1.938 1.125q1.625 0.438 7.625 0.625l5.688 0.063 5.688-0.063q6-0.188 7.625-0.625 1.125-0.313 1.938-1.125t1.125-1.875q0.438-1.688 0.625-5.188l0.063-3.125-0.063-3.125q-0.188-3.438-0.625-5.125zM14.5 21.125v-10.188l8.938 5.063z"></path>
</svg>
